PathFileType	4	(X/Y/Z)	C:/ViconProjects/foot_20160225/trc/2_test02_dynamic.trc
DataRate	CameraRate	NumFrames	NumMarkers	Units	OrigDataRate	OrigDataStartFrame	OrigNumFrames
120.000000	120.000000	9	39	mm	120.000000	102	406
Frame#	Time	LFWT			RFWT			VBWT			LKNE			LANK			LMT5			LMT1			LHEL			LTOE			RKNE			RANK			RMT5			RMT1			RHEL			RTOE			T10			FHEAD			THEAD			RHEAD			LBSH			LELB			LOWR			RBSH			RELB			ROWR			LTHI			RTHI			LSHAN			RSHAN			LIHEL			LOHEL			RIHEL			ROHEL			LMT3			LNAVI			LCUNE			RMT3			RNAVI			RCUNE			
		X0	Y0	Z0	X1	Y1	Z1	X2	Y2	Z2	X3	Y3	Z3	X4	Y4	Z4	X5	Y5	Z5	X6	Y6	Z6	X7	Y7	Z7	X8	Y8	Z8	X9	Y9	Z9	X10	Y10	Z10	X11	Y11	Z11	X12	Y12	Z12	X13	Y13	Z13	X14	Y14	Z14	X15	Y15	Z15	X16	Y16	Z16	X17	Y17	Z17	X18	Y18	Z18	X19	Y19	Z19	X20	Y20	Z20	X21	Y21	Z21	X22	Y22	Z22	X23	Y23	Z23	X24	Y24	Z24	X25	Y25	Z25	X26	Y26	Z26	X27	Y27	Z27	X28	Y28	Z28	X29	Y29	Z29	X30	Y30	Z30	X31	Y31	Z31	X32	Y32	Z32	X33	Y33	Z33	X34	Y34	Z34	X35	Y35	Z35	X36	Y36	Z36	X37	Y37	Z37	X38	Y38	Z38	
102	0.850000	976.968445	8.567720	951.982605	990.403870	292.929688	952.330872	1210.029419	143.582245	953.647278	1063.108276	19.005199	462.477783	1159.737183	44.433559	63.621891	1061.098755	24.035999	39.649330	1010.854370	98.511299	45.871948	1226.732056	98.840378	48.810539	976.205139	88.224609	38.533562	916.435425	336.901245	491.425049	1113.627563	287.113983	142.346420	1034.728638	314.483948	62.276772	978.486267	250.632416	67.675110	1168.328613	212.223251	146.951019	947.495361	277.147614	51.518799	1169.501709	82.336021	1290.420532	841.450562	179.058334	1619.481323	940.269836	183.442093	1717.480225	1056.967651	175.589951	1664.159790	993.685120	-41.595249	1428.282349	996.065491	-162.728882	1111.785034	858.593140	-152.380310	894.351135	1040.792725	361.591919	1417.433105	1126.593506	468.814728	1109.995239	1038.115479	475.986176	860.263184	961.770142	67.725883	617.708496	851.260803	294.504181	620.961426	1069.120361	101.222900	325.116608	981.444519	242.355530	275.433380	1193.072266	132.209290	49.193699	1199.539917	59.600620	46.599072	1123.097534	190.039352	134.531387	1150.283325	260.369232	131.954224	1020.627319	59.084469	41.549610	1108.877075	136.081909	52.192299	1124.338379	36.363739	34.724201	993.812805	283.281250	62.739269	1051.925171	205.868195	117.443100	1088.652466	296.447632	90.776588
103	0.858333	966.889832	8.182020	950.578369	979.301697	292.226196	951.102112	1199.662231	144.453812	952.368408	1059.397461	19.041349	461.654236	1159.491089	44.775440	63.975140	1061.151123	24.002819	39.598881	1010.642334	98.334412	45.758411	1226.699097	99.079910	49.051319	975.813293	87.972992	38.593391	898.788208	335.925629	492.147217	1078.200073	287.894897	132.766953	995.049561	315.307556	59.010639	940.302490	250.695602	66.777740	1135.000000	213.777817	136.011200	909.116699	277.228668	52.674042	1158.779785	81.999039	1289.571655	829.957947	179.460114	1618.253906	928.904541	183.877335	1716.211914	1045.187378	175.674988	1662.924194	982.048401	-41.129028	1427.179565	978.949585	-161.883759	1110.953003	835.645447	-148.548615	896.968445	1030.758301	362.154663	1416.143555	1119.859375	468.443176	1109.684448	1035.211914	476.132813	858.377380	955.356262	67.753342	615.588867	836.264893	293.537018	622.931030	1066.767822	101.215530	324.140900	954.515320	242.236053	273.569061	1192.654907	133.081512	49.460041	1199.148438	60.007389	46.691990	1089.441040	191.688110	124.984039	1115.801392	261.794312	121.873932	1020.321289	59.411629	40.981979	1107.774170	136.265244	52.149120	1124.381958	36.503529	34.735828	955.372253	283.989502	61.392330	1015.237854	206.262985	112.433167	1051.543213	297.751007	83.715660
104	0.866667	956.557190	7.632300	949.390686	968.652710	292.168976	949.802063	1189.538574	144.971191	951.117554	1054.919067	19.495380	460.781036	1157.876221	44.939911	63.818310	1061.614258	23.561810	39.619461	1010.437195	98.207916	45.642349	1226.626099	99.602570	49.658360	975.638367	87.506622	37.603340	881.089233	334.483582	493.040222	1043.528320	289.561096	125.484138	956.456665	316.244934	55.781601	900.491943	251.165298	67.112457	1100.993042	215.831146	123.851021	870.369446	277.918152	54.484390	1147.399292	81.375282	1288.525146	817.706543	179.864471	1616.460205	917.597107	184.564407	1714.684814	1033.975464	175.756165	1661.634277	970.636902	-40.713879	1425.925659	962.246765	-161.596985	1109.727173	813.718323	-144.875061	899.658997	1020.118835	361.710266	1414.640991	1112.877075	467.654236	1108.959717	1032.975220	476.581451	856.680359	948.090149	67.975983	613.692139	820.133728	291.555054	625.337280	1063.565308	101.481628	323.470978	928.152283	242.204102	270.879669	1192.234375	133.627625	49.561180	1197.151245	61.892151	45.778801	1055.442017	193.588181	115.654457	1079.851563	263.585266	112.162659	1020.390320	58.929581	41.383808	1107.490234	136.471878	51.855358	1124.429565	36.654030	34.766460	917.347595	284.394348	60.112652	980.673462	207.602768	107.619659	1014.294067	299.065277	77.241127
105	0.875000	946.884277	7.486300	947.777649	957.570740	292.071289	948.171814	1178.793213	145.461472	949.343079	1050.837402	19.674601	459.995300	1157.884033	45.559731	64.120842	1061.531250	23.689951	39.630371	1010.343079	98.199760	45.459030	1226.488281	100.459221	50.287460	975.601318	87.014473	37.524780	863.198181	333.389740	493.562317	1008.226624	291.406433	117.561882	917.073547	317.544403	53.681850	862.940002	252.096939	67.291878	1065.829834	218.179016	112.922211	831.339417	278.360687	56.712490	1136.468628	81.134827	1287.249756	806.475830	180.159744	1614.675781	905.858521	184.511978	1713.097412	1022.688660	176.220261	1660.273315	958.711487	-40.472950	1424.543823	945.154419	-161.010223	1108.304688	791.241028	-141.115311	902.332581	1009.817200	362.264862	1413.140625	1105.719971	466.989105	1108.479492	1030.052246	477.008026	854.657654	940.968750	68.235924	611.843506	805.623291	290.206085	627.022156	1060.516846	101.646767	322.977448	901.298279	242.312866	269.612427	1192.209229	134.105515	50.053848	1197.044312	62.272591	46.110149	1019.814941	195.062592	107.262947	1044.667969	266.150421	102.284668	1020.349792	58.854500	41.333771	1106.652832	136.675217	51.602619	1124.525391	36.874950	34.918831	878.915527	285.587769	60.086689	945.984070	209.186646	102.633560	976.315796	301.432434	71.825500
106	0.883333	936.835571	7.531670	945.880432	947.195984	292.136719	945.890076	1168.301514	146.251892	947.607483	1045.962280	19.844709	458.822845	1158.588379	46.431622	64.085548	1061.510376	23.839060	39.582371	1010.193604	98.110893	45.435558	1225.771362	101.424438	50.775478	975.693054	86.361969	37.268650	846.704285	332.071136	493.740082	972.238464	293.528687	110.429367	877.857544	319.294281	51.805828	825.599426	253.124222	68.288979	1031.820923	221.190445	102.544937	793.190674	279.119629	59.864319	1125.268921	80.874153	1285.837891	796.083862	180.649719	1612.619019	894.076599	185.012115	1711.358032	1010.840881	176.483246	1658.650024	946.526672	-39.952820	1422.889893	928.397339	-160.083954	1106.647827	769.295044	-137.416626	904.779907	999.206421	362.227142	1411.464844	1098.238403	466.718658	1107.404663	1026.911255	477.533051	852.803528	934.248535	68.315750	609.577698	791.825195	288.465942	627.938538	1057.642822	101.869728	321.901550	874.420593	242.022720	267.791351	1191.999512	134.630783	50.173080	1196.913574	62.792141	46.841820	984.512573	197.517258	99.053490	1009.298828	269.540802	93.738800	1020.128540	58.804970	41.246422	1106.090698	137.097473	51.443249	1124.457397	37.292912	34.973751	840.487793	286.722931	60.164822	910.852051	211.127411	98.950531	937.858154	303.660706	66.757980
107	0.891667	926.323486	7.001780	943.949341	935.872803	292.173676	943.296021	1157.766724	146.971207	945.750000	1041.162476	20.117310	458.017120	1157.691772	46.170750	65.793457	1061.456909	24.140200	39.616871	1009.991699	98.062187	45.375408	1225.766846	101.823471	51.378738	975.430603	85.964256	37.127251	829.232422	331.160492	493.993774	935.288452	295.871582	103.002083	839.177185	321.271240	51.403118	788.008789	254.024689	69.424400	996.981934	225.192047	92.464706	755.473267	279.530334	63.533840	1114.111572	80.876717	1284.268311	784.167114	180.897736	1610.689453	882.427185	185.543152	1709.368774	999.525940	176.527405	1656.905640	934.608704	-39.645988	1420.918701	911.187439	-159.214279	1104.932251	747.270447	-133.597153	907.703491	989.072205	362.881195	1409.297485	1092.073730	466.337433	1106.934814	1024.209717	477.961212	850.622009	927.278870	68.690964	607.854492	777.809387	286.757782	628.578857	1054.578491	102.154671	321.155060	847.537659	242.487350	266.276276	1190.828003	134.800140	50.129890	1198.470703	62.313721	48.817928	950.121155	201.181961	91.405617	971.510864	271.792816	84.298080	1020.007874	58.749401	41.157581	1105.515991	137.425751	51.224079	1124.404297	37.808750	35.316109	801.745972	288.074371	61.406250	875.955872	213.083160	95.300583	899.377747	306.273926	62.642288
108	0.900000	915.683655	7.104460	941.727478	924.098511	292.296509	941.159729	1146.753906	147.536224	943.872192	1037.018188	20.307791	456.907166	1157.506348	46.547352	66.106461	1061.379639	24.231569	39.732410	1009.787415	98.037643	45.320141	1225.932129	102.590218	52.386600	975.255066	85.618187	36.952240	813.060181	328.953949	493.414551	899.466797	298.307220	96.987267	800.597534	323.360687	51.076618	750.122009	254.647034	71.412857	960.106812	227.240189	82.865211	721.150757	282.170502	69.663132	1103.536133	81.009430	1282.643555	772.422546	181.208252	1608.498535	870.987732	186.013931	1707.181396	988.041870	177.156693	1654.785645	922.854980	-39.120659	1418.723999	894.932922	-158.316940	1103.408325	726.323608	-130.231689	910.353210	977.948425	363.185883	1407.598755	1084.561035	466.177551	1106.031372	1021.027222	478.325500	849.227112	920.522644	69.021698	605.867249	764.798645	285.172455	629.055725	1051.125244	102.013634	320.324432	821.998230	243.128220	264.652771	1189.963623	135.597717	50.472641	1198.345337	62.607349	49.150848	914.740906	204.354340	84.433952	934.872742	275.465027	77.304848	1019.772766	58.672352	41.035339	1104.440918	137.252106	51.478580	1124.038086	38.396179	35.477558	764.289551	289.837921	62.842602	840.200684	214.988449	92.174202	862.198669	309.370697	59.597229
109	0.908333	905.422119	7.332310	939.665039	913.046509	292.387451	938.348511	1135.953979	148.102005	941.780823	1031.658813	20.238001	456.130676	1157.042358	47.201649	66.297729	1061.326172	24.441660	39.704102	1009.406189	97.688454	45.355042	1225.710815	103.263458	53.305729	974.840820	85.305122	36.662399	797.856812	327.752533	492.964783	863.890564	301.976501	92.213303	761.870300	325.458008	52.234032	717.107239	256.977936	72.260513	925.293945	232.995575	74.406448	682.199707	281.210358	72.129204	1092.027466	81.318626	1280.715088	760.383118	181.773315	1606.308594	859.269653	186.355209	1705.265991	976.535645	177.218307	1652.827026	911.300476	-38.594990	1416.421631	878.114136	-157.224442	1101.544189	705.253662	-126.133034	912.873962	967.020691	363.306793	1405.328125	1075.796509	465.851349	1104.822510	1017.573608	479.101257	847.109985	913.834595	68.924210	603.504456	751.880127	284.045502	628.530640	1047.852417	102.530472	319.578857	796.043335	243.579086	263.481476	1189.904053	136.085342	50.919682	1196.363159	65.067734	48.516140	879.506042	207.618927	78.031433	899.494507	280.327789	70.768822	1019.720825	58.593201	40.986992	1105.163086	138.104477	51.408531	1123.933838	38.579121	35.518780	727.452881	291.345367	64.909332	805.767883	217.493958	89.752937	823.313171	311.901886	57.107841
110	0.916667	894.848328	7.266990	937.394043	901.628906	292.968811	935.380310	1125.260864	148.884796	939.911133	1027.602539	20.622980	455.140442	1157.870361	48.793541	64.933502	1061.401978	24.533501	39.584862	1009.810547	98.025002	45.278690	1225.185669	104.010178	54.255150	974.588501	84.977867	36.594898	783.125854	325.708496	492.115234	825.738037	303.488800	87.404984	724.143921	327.783417	53.676041	681.273804	258.521332	75.057663	889.108459	236.550278	67.063293	653.307556	283.237549	79.652489	1080.718018	81.422043	1278.521362	748.718872	182.113419	1603.751343	847.352661	186.852997	1702.745239	964.647644	177.839050	1650.676025	899.859863	-37.923161	1414.084106	861.404358	-156.055435	1099.394165	684.613159	-122.248260	915.657654	956.213196	364.048462	1403.233276	1068.676758	465.609406	1104.059448	1013.545654	479.695465	845.271790	907.164124	68.794983	601.252136	739.168152	282.177063	627.511108	1044.418335	102.701797	318.916168	770.272705	244.398392	262.725220	1189.603027	136.728058	51.715401	1196.301636	65.384911	49.478748	844.104980	211.460861	72.399902	862.382568	283.774475	64.816147	1019.656311	58.549820	40.958229	1104.899170	138.253479	51.462029	1123.794678	38.757999	35.625568	690.493469	292.883026	67.289093	770.985840	220.332901	87.850029	785.858276	314.732208	54.796589
